<svg xmlns="http://www.w3.org/2000/svg" version="1.1" xmlns:xlink="http://www.w3.org/1999/xlink" xmlns:svgjs="http://svgjs.dev/svgjs" width="1500" height="1500" viewBox="0 0 1500 1500"><rect width="1500" height="1500" fill="#ffffff"></rect><g transform="matrix(0.6666666666666666,0,0,0.6666666666666666,249.50000000000006,249.50000000000006)"><svg viewBox="0 0 280 280" data-background-color="#ffffff" preserveAspectRatio="xMidYMid meet" height="1500" width="1500" xmlns="http://www.w3.org/2000/svg" xmlns:xlink="http://www.w3.org/1999/xlink"><g id="tight-bounds" transform="matrix(1,0,0,1,0.13999999999998636,0.13999999999998636)"><svg viewBox="0 0 279.72 279.72" height="279.72" width="279.72"><g><svg viewBox="0 0 279.72 279.72" height="279.72" width="279.72"><g><svg viewBox="0 0 279.72 279.72" height="279.72" width="279.72"><g id="textblocktransform"><svg viewBox="0 0 279.72 279.72" height="279.72" width="279.72" id="textblock"><g><svg viewBox="0 0 279.72 279.72" height="279.72" width="279.72"><g transform="matrix(1,0,0,1,73.92936372216631,77.9277523406613)"><svg viewBox="0 0 131.8612725556674 123.86449531867743" height="123.86449531867743" width="131.8612725556674"><g id="icon-0"><svg xmlns="http://www.w3.org/2000/svg" xmlns:xlink="http://www.w3.org/1999/xlink" version="1.1" x="0" y="0" viewBox="0.293 4.557 99.41399999999999 93.38499999999998" enable-background="new 0 0 100 100" xml:space="preserve" height="123.86449531867743" width="131.8612725556674" class="icon-jxe-0" data-fill-palette-color="accent" id="jxe-0"><g fill="#0061d9" data-fill-palette-color="accent"><path d="M29.168 81.498V46.742L51.332 34.961A2.5 2.5 0 1 0 48.984 30.546L25.868 42.833C25.004 43.293 24.527 43.625 24.262 44.562 24.09 45.109 24.168 45.938 24.168 46.423V81.497C21.189 82.535 19.043 85.364 19.043 88.692V97.942H34.293V88.692C34.293 85.365 32.146 82.536 29.168 81.498" fill="#000000" data-fill-palette-color="accent"></path><path d="M20.168 48.79L17.5 47.332V53.865C17.5 56.933 18.455 59.851 20.168 62.499z" fill="#000000" data-fill-palette-color="accent"></path><path d="M49.999 65.094L47.461 63.706 33.168 55.302V72.471C38.078 74.463 43.838 75.611 50 75.611 67.949 75.611 82.5 65.877 82.5 53.866V47.332L52.537 63.706z" fill="#000000" data-fill-palette-color="accent"></path><path d="M50 4.557L0.293 32.002 0.502 32.117 20.503 43.048C21.308 40.58 23.105 39.606 23.99 39.135L47.106 26.848A6.494 6.494 0 0 1 55.898 29.539C57.578 32.705 56.371 36.647 53.209 38.328L33.167 48.98 49.999 59.168 99.558 32.084 99.707 32.002z" fill="#000000" data-fill-palette-color="accent"></path><path d="M50.066 30.098C50.126 30.096 50.186 30.098 50.246 30.099 50.215 30.098 50.185 30.087 50.154 30.087 50.125 30.087 50.096 30.097 50.066 30.098" fill="#000000" data-fill-palette-color="accent"></path></g></svg></g></svg></g><g id="text-0"><path d="M24.762 106.72l-11.2-3.378-0.698 2.315-2.209-0.666 0.698-2.315-1.544-0.466c-1.543-0.466-2.608-1.18-3.195-2.142-0.587-0.963-0.67-2.139-0.251-3.528v0c0.128-0.424 0.283-0.788 0.466-1.091 0.181-0.296 0.42-0.624 0.717-0.983v0l2.335 0.704c-0.517 0.553-0.859 1.102-1.024 1.649v0c-0.202 0.669-0.162 1.211 0.12 1.625 0.29 0.41 0.802 0.726 1.535 0.947v0l1.679 0.507 1.038-3.444 2.21 0.666-1.039 3.444 11.199 3.378z" fill="#000000" data-fill-palette-color="primary"></path><path d="M12.878 89.659c-0.191 0.502-0.522 0.865-0.995 1.088-0.479 0.221-0.979 0.232-1.5 0.034v0c-0.534-0.203-0.907-0.545-1.118-1.028-0.206-0.48-0.213-0.972-0.023-1.474v0c0.191-0.502 0.522-0.865 0.995-1.088 0.479-0.221 0.985-0.23 1.519-0.027v0c0.521 0.198 0.888 0.538 1.1 1.021 0.206 0.48 0.213 0.972 0.022 1.474zM14.879 91.97l1.029-2.712 13.094 4.97-1.03 2.713z" fill="#000000" data-fill-palette-color="primary"></path><path d="M22.17 75.595c0.618-1.216 1.465-1.979 2.543-2.291 1.086-0.314 2.259-0.152 3.516 0.487v0l8.687 4.413-1.315 2.587-7.725-3.925c-0.928-0.472-1.705-0.655-2.331-0.551-0.626 0.104-1.116 0.507-1.472 1.208v0c-0.316 0.623-0.477 1.25-0.481 1.88-0.01 0.628 0.112 1.345 0.365 2.152v0l8.947 4.545-1.314 2.587-9.711-4.933-3.045-0.88 1.255-2.471 1.863 0.472c-0.326-1.093-0.48-2.037-0.46-2.833 0.023-0.787 0.249-1.603 0.678-2.447z" fill="#000000" data-fill-palette-color="primary"></path><path d="M47.747 62.964l-1.613 2.24-1.758-0.732c0.379 1.921 0.004 3.666-1.127 5.235v0c-0.993 1.379-2.296 2.067-3.909 2.065-1.618-0.007-3.299-0.638-5.043-1.895v0c-1.842-1.327-2.983-2.84-3.422-4.54-0.444-1.694-0.08-3.353 1.089-4.977v0c0.734-1.019 1.678-1.829 2.832-2.43v0l-5.502-3.964 1.696-2.355 13.89 10.007zM41.607 67.729c0.416-0.578 0.682-1.222 0.797-1.934 0.115-0.712 0.1-1.518-0.046-2.417v0l-5.878-4.235c-0.89 0.684-1.633 1.439-2.23 2.268v0c-0.719 0.997-0.91 2.01-0.575 3.038 0.341 1.032 1.135 1.998 2.384 2.897v0c1.177 0.848 2.249 1.326 3.214 1.434 0.971 0.112 1.749-0.238 2.334-1.051z" fill="#000000" data-fill-palette-color="primary"></path><path d="M47.758 42.858l2.084-2.119 8.804 19.904-1.993 2.026-2.578-5.842-14.13-6.023 2.07-2.105 10.706 4.691z" fill="#000000" data-fill-palette-color="primary"></path><path d="M67.853 44.63c-1.085 0.847-2.219 1.344-3.4 1.49-1.172 0.148-2.313-0.043-3.425-0.572-1.107-0.534-2.111-1.377-3.012-2.532v0c-0.905-1.16-1.482-2.341-1.731-3.544-0.24-1.202-0.148-2.356 0.275-3.462 0.433-1.105 1.192-2.081 2.278-2.928v0c1.091-0.851 2.222-1.351 3.393-1.499 1.181-0.146 2.323 0.044 3.425 0.573 1.112 0.529 2.121 1.374 3.026 2.533v0c0.901 1.154 1.474 2.335 1.718 3.543 0.249 1.203 0.157 2.357-0.276 3.461-0.423 1.106-1.18 2.085-2.271 2.937zM66.352 42.708c0.948-0.74 1.399-1.646 1.355-2.719-0.041-1.067-0.528-2.199-1.463-3.396v0c-0.938-1.202-1.92-1.952-2.946-2.251-1.026-0.299-2.012-0.078-2.96 0.662v0c-0.942 0.736-1.391 1.635-1.344 2.698 0.046 1.063 0.538 2.196 1.476 3.398v0c0.934 1.197 1.911 1.946 2.932 2.249 1.024 0.308 2.008 0.094 2.95-0.641z" fill="#000000" data-fill-palette-color="primary"></path><path d="M88.273 31.454l-2.408 1.371-1.295-1.419c-0.376 1.118-0.796 2.003-1.26 2.653-0.461 0.657-1.103 1.219-1.926 1.688v0c-1.121 0.638-2.225 0.776-3.313 0.414-1.09-0.353-1.972-1.122-2.647-2.307v0l-4.816-8.458 2.522-1.436 4.287 7.53c0.479 0.841 1.016 1.404 1.612 1.691 0.596 0.287 1.206 0.252 1.831-0.104v0c0.601-0.342 1.086-0.781 1.455-1.315 0.365-0.54 0.678-1.225 0.94-2.054v0l-4.951-8.695 2.522-1.436 5.389 9.465z" fill="#000000" data-fill-palette-color="primary"></path><path d="M94.067 13.656l0.803-0.326 1.131 2.781-0.402 0.163c-1.425 0.58-2.388 1.493-2.887 2.741v0l3.72 9.147-2.679 1.089-4.104-10.089-1.723-2.66 2.688-1.093 1.219 1.875c0.259-1.128 0.552-1.958 0.88-2.49 0.324-0.523 0.775-0.903 1.354-1.138z" fill="#000000" data-fill-palette-color="primary"></path><path d="M114.299 15.467l0.239 0.875-9.496 2.594c0.462 1.155 1.136 1.977 2.021 2.467 0.887 0.496 1.927 0.581 3.119 0.255v0c0.778-0.212 1.53-0.582 2.257-1.108 0.727-0.526 1.391-1.177 1.994-1.955v0l0.106-0.029 0.688 2.518c-1.14 1.46-2.617 2.438-4.431 2.934v0c-1.4 0.382-2.698 0.42-3.896 0.114-1.19-0.302-2.211-0.917-3.064-1.848-0.845-0.925-1.461-2.097-1.849-3.516v0c-0.372-1.361-0.447-2.642-0.225-3.845 0.215-1.201 0.717-2.229 1.507-3.085 0.785-0.848 1.809-1.445 3.073-1.79v0c1.244-0.34 2.397-0.338 3.459 0.005 1.07 0.348 1.994 0.991 2.772 1.927 0.773 0.945 1.349 2.107 1.726 3.487zM106.963 12.322c-0.953 0.26-1.639 0.806-2.059 1.638-0.422 0.826-0.553 1.812-0.393 2.959v0l6.61-1.806c-0.454-1.101-1.032-1.905-1.734-2.409-0.702-0.505-1.51-0.632-2.424-0.382z" fill="#000000" data-fill-palette-color="primary"></path><path d="M133.676 20.01l-2.74 0.337-0.656-1.788c-1.152 1.583-2.689 2.492-4.609 2.729v0c-1.687 0.207-3.077-0.282-4.17-1.468-1.094-1.192-1.772-2.855-2.033-4.988v0c-0.277-2.253 0.059-4.119 1.008-5.596 0.942-1.476 2.407-2.336 4.393-2.58v0c1.247-0.153 2.482-0.011 3.707 0.428v0l-0.826-6.73 2.88-0.354 2.087 16.991zM126.008 18.739c0.707-0.087 1.36-0.33 1.961-0.728 0.601-0.399 1.182-0.957 1.743-1.676v0l-0.883-7.191c-1.106-0.189-2.166-0.221-3.179-0.097v0c-1.22 0.15-2.094 0.697-2.62 1.642-0.526 0.951-0.695 2.19-0.508 3.717v0c0.177 1.44 0.554 2.551 1.13 3.333 0.577 0.789 1.363 1.122 2.356 1z" fill="#000000" data-fill-palette-color="primary"></path><path d="M151.422 20.359l-2.77-0.064-0.379-1.884c-0.898 0.765-1.714 1.307-2.447 1.626-0.733 0.326-1.573 0.477-2.52 0.456v0c-1.289-0.03-2.307-0.48-3.052-1.351-0.753-0.864-1.113-1.978-1.082-3.341v0l0.227-9.731 2.901 0.068-0.202 8.662c-0.023 0.967 0.148 1.727 0.512 2.28 0.363 0.553 0.904 0.837 1.622 0.854v0c0.692 0.016 1.333-0.11 1.924-0.378 0.591-0.275 1.212-0.701 1.864-1.277v0l0.233-10.003 2.901 0.068-0.253 10.889z" fill="#000000" data-fill-palette-color="primary"></path><path d="M162.677 22.586c-1.377-0.235-2.521-0.74-3.432-1.515-0.911-0.769-1.549-1.743-1.913-2.923-0.364-1.18-0.426-2.475-0.186-3.885v0c0.244-1.43 0.737-2.644 1.48-3.642 0.743-0.998 1.673-1.718 2.791-2.161 1.125-0.442 2.366-0.547 3.723-0.315v0c1.741 0.297 3.075 0.93 4 1.898v0l-0.447 2.622-0.1-0.017c-1.019-1.06-2.296-1.72-3.832-1.982v0c-1.232-0.21-2.249 0.059-3.051 0.808-0.797 0.757-1.32 1.867-1.569 3.33v0c-0.244 1.43-0.115 2.614 0.385 3.552 0.501 0.937 1.367 1.511 2.599 1.721v0c1.536 0.262 3.037-0.01 4.504-0.816v0l0.099 0.017-0.452 2.652c-1.285 0.742-2.818 0.96-4.599 0.656z" fill="#000000" data-fill-palette-color="primary"></path><path d="M183.021 27.909l-2.76-0.864 0.217-1.874c-1.715 0.984-3.467 1.196-5.256 0.636v0c-1.263-0.395-2.19-1.065-2.781-2.01-0.585-0.943-0.699-1.985-0.342-3.126v0c0.465-1.487 1.397-2.431 2.796-2.831 1.397-0.394 3.08-0.283 5.048 0.333v0c0.801 0.251 1.54 0.52 2.217 0.81v0l0.226-0.722c0.267-0.853 0.238-1.583-0.086-2.191-0.324-0.608-0.915-1.046-1.774-1.315v0c-0.936-0.293-1.835-0.423-2.696-0.389-0.86 0.027-1.813 0.204-2.859 0.531v0l0.8-2.558c0.965-0.318 1.908-0.463 2.829-0.435 0.92 0.027 1.91 0.207 2.967 0.538v0c1.603 0.501 2.734 1.316 3.395 2.444 0.658 1.135 0.755 2.446 0.29 3.934v0l-1.859 5.943zM176.392 23.755c0.737 0.231 1.466 0.286 2.186 0.167 0.722-0.126 1.487-0.401 2.295-0.824v0l0.68-2.173-2.404-0.752c-1.077-0.337-1.967-0.429-2.67-0.275-0.705 0.16-1.184 0.647-1.438 1.461v0c-0.176 0.564-0.145 1.06 0.094 1.486 0.242 0.42 0.66 0.724 1.257 0.91z" fill="#000000" data-fill-palette-color="primary"></path><path d="M198.587 14.078l-2.066 4.551 3.248 1.474-0.953 2.101-3.248-1.474-3.082 6.79c-0.275 0.606-0.365 1.137-0.269 1.593 0.101 0.459 0.403 0.803 0.904 1.03v0c0.52 0.236 1.178 0.346 1.974 0.331v0l-1.02 2.248c-0.818-0.017-1.659-0.222-2.521-0.613v0c-1.156-0.525-1.883-1.279-2.182-2.263-0.307-0.98-0.168-2.116 0.418-3.406v0l3.135-6.909-2.174-0.987 0.953-2.101 2.175 0.987 1.553-3.422z" fill="#000000" data-fill-palette-color="primary"></path><path d="M207.539 21.238c-0.47-0.26-0.782-0.64-0.935-1.14-0.15-0.505-0.09-1.002 0.179-1.49v0c0.276-0.5 0.669-0.82 1.177-0.961 0.505-0.135 0.992-0.073 1.462 0.188v0c0.47 0.26 0.782 0.64 0.936 1.139 0.15 0.505 0.087 1.008-0.189 1.508v0c-0.27 0.488-0.659 0.802-1.167 0.943-0.505 0.135-0.992 0.073-1.463-0.187zM204.967 22.889l2.539 1.405-6.781 12.254-2.539-1.405z" fill="#000000" data-fill-palette-color="primary"></path><path d="M210.414 43.551c-1.123-0.797-1.924-1.74-2.403-2.83-0.477-1.08-0.622-2.229-0.434-3.445 0.194-1.213 0.714-2.417 1.562-3.612v0c0.851-1.2 1.818-2.091 2.899-2.675 1.083-0.574 2.215-0.817 3.395-0.728 1.183 0.098 2.335 0.545 3.459 1.342v0c1.129 0.801 1.931 1.741 2.408 2.821 0.479 1.089 0.623 2.238 0.434 3.446-0.188 1.217-0.708 2.426-1.559 3.625v0c-0.847 1.194-1.814 2.081-2.902 2.661-1.081 0.584-2.213 0.826-3.395 0.729-1.181-0.088-2.336-0.533-3.464-1.334zM211.825 41.562c0.981 0.696 1.978 0.868 2.993 0.518 1.011-0.345 1.956-1.137 2.834-2.375v0c0.882-1.244 1.32-2.399 1.312-3.468-0.008-1.068-0.502-1.95-1.483-2.646v0c-0.975-0.692-1.965-0.863-2.971-0.514-1.005 0.349-1.949 1.145-2.832 2.389v0c-0.879 1.238-1.317 2.389-1.314 3.454-0.001 1.07 0.486 1.951 1.461 2.642z" fill="#000000" data-fill-palette-color="primary"></path><path d="M235.288 45.638c0.986 0.942 1.472 1.974 1.46 3.095-0.012 1.131-0.506 2.206-1.481 3.227v0l-6.731 7.044-2.098-2.005 5.987-6.265c0.719-0.753 1.119-1.444 1.2-2.072 0.081-0.629-0.163-1.215-0.731-1.758v0c-0.505-0.483-1.059-0.817-1.662-1.003-0.598-0.191-1.32-0.281-2.166-0.272v0l-6.933 7.256-2.098-2.005 7.525-7.875 1.721-2.661 2.004 1.914-0.989 1.647c1.14 0.003 2.089 0.128 2.845 0.378 0.747 0.249 1.463 0.701 2.147 1.355z" fill="#000000" data-fill-palette-color="primary"></path><path d="M232.878 64.789c-0.363-0.44-0.523-0.945-0.478-1.513 0.04-0.564 0.3-1.045 0.782-1.443v0c0.487-0.402 1.011-0.569 1.572-0.501 0.566 0.064 1.031 0.316 1.395 0.756v0c0.368 0.445 0.529 0.952 0.485 1.521-0.04 0.564-0.303 1.047-0.79 1.449v0c-0.482 0.398-1.003 0.563-1.565 0.494-0.566-0.064-1.034-0.318-1.401-0.763z" fill="#000000" data-fill-palette-color="primary"></path><path d="M253.51 68.696c0.757 1.134 1.007 2.247 0.75 3.339-0.259 1.101-0.975 2.043-2.148 2.826v0l-8.105 5.408-1.61-2.414 7.208-4.809c0.866-0.578 1.407-1.165 1.623-1.762 0.216-0.596 0.106-1.221-0.331-1.875v0c-0.388-0.581-0.855-1.028-1.403-1.34-0.542-0.317-1.227-0.562-2.054-0.737v0l-8.348 5.569-1.611-2.414 9.061-6.045 2.26-2.222 1.537 2.305-1.324 1.392c1.112 0.251 2.01 0.581 2.695 0.988 0.675 0.406 1.275 1.003 1.8 1.791z" fill="#000000" data-fill-palette-color="primary"></path><path d="M258.065 93.56l-0.821 0.384-4.166-8.919c-1.06 0.651-1.756 1.454-2.088 2.41-0.338 0.959-0.246 1.998 0.277 3.117v0c0.341 0.73 0.832 1.409 1.474 2.037 0.641 0.627 1.396 1.172 2.264 1.633v0l0.047 0.101-2.364 1.104c-1.632-0.876-2.847-2.166-3.643-3.87v0c-0.614-1.315-0.871-2.588-0.772-3.821 0.096-1.224 0.53-2.334 1.301-3.332 0.769-0.989 1.819-1.795 3.152-2.418v0c1.278-0.597 2.528-0.888 3.752-0.873 1.22 0.009 2.319 0.329 3.296 0.962 0.969 0.63 1.73 1.538 2.285 2.725v0c0.546 1.169 0.739 2.305 0.58 3.41-0.162 1.114-0.638 2.133-1.429 3.059-0.8 0.922-1.848 1.686-3.145 2.291zM259.922 85.798c-0.418-0.895-1.072-1.479-1.963-1.752-0.885-0.276-1.879-0.238-2.983 0.115v0l2.9 6.207c1.009-0.634 1.702-1.34 2.08-2.117 0.378-0.777 0.367-1.595-0.034-2.453z" fill="#000000" data-fill-palette-color="primary"></path><path d="M272.446 98.871l-4.758 1.527 1.09 3.396-2.197 0.706-1.09-3.396-7.1 2.278c-0.633 0.203-1.087 0.493-1.36 0.871-0.272 0.384-0.324 0.838-0.156 1.362v0c0.175 0.544 0.535 1.105 1.081 1.685v0l-2.351 0.755c-0.537-0.618-0.95-1.378-1.239-2.28v0c-0.388-1.209-0.318-2.254 0.21-3.136 0.52-0.886 1.454-1.546 2.804-1.98v0l7.224-2.318-0.73-2.274 2.197-0.705 0.73 2.273 3.578-1.148z" fill="#000000" data-fill-palette-color="primary"></path><path d="M5.165 140.58c0-4.344 3.521-7.865 7.865-7.865 4.344 0 7.865 3.521 7.865 7.865 0 4.344-3.521 7.865-7.865 7.865-4.344 0-7.865-3.521-7.865-7.865z" fill="#000000" data-fill-palette-color="primary"></path><path d="M258.825 140.58c0-4.344 3.521-7.865 7.865-7.865 4.344 0 7.865 3.521 7.865 7.865 0 4.344-3.521 7.865-7.865 7.865-4.344 0-7.865-3.521-7.865-7.865z" fill="#000000" data-fill-palette-color="primary"></path></g><g id="text-1"><path d="M13.145 180.535l5.593-1.763 8.232-8.003 0.66 2.095-6.28 6.12 8.66 1.433 0.661 2.095-11.331-1.827-5.593 1.762z" fill="#000000" data-fill-palette-color="secondary"></path><path d="M22.285 188.822v0c-1.401 0.601-2.313 1.364-2.735 2.29-0.415 0.923-0.394 1.919 0.064 2.988v0c0.455 1.062 1.149 1.744 2.082 2.045 0.933 0.302 2.082 0.16 3.447-0.425v0c1.445-0.619 2.387-1.396 2.827-2.33 0.44-0.934 0.427-1.944-0.039-3.031v0c-0.466-1.087-1.174-1.766-2.123-2.039-0.941-0.269-2.116-0.102-3.523 0.502zM21.509 186.962v0c1.105-0.474 2.097-0.691 2.977-0.651 0.883 0.031 1.659 0.221 2.327 0.57 0.672 0.34 1.23 0.781 1.674 1.321 0.444 0.541 0.783 1.086 1.019 1.635v0c0.222 0.519 0.382 1.122 0.48 1.812 0.098 0.689 0.045 1.384-0.158 2.085-0.201 0.707-0.586 1.387-1.154 2.04-0.568 0.653-1.401 1.215-2.5 1.686v0c-1.148 0.492-2.175 0.724-3.079 0.694-0.907-0.035-1.693-0.224-2.359-0.567-0.675-0.347-1.235-0.793-1.682-1.34-0.446-0.547-0.785-1.089-1.014-1.626v0c-0.236-0.549-0.397-1.164-0.483-1.843-0.089-0.685-0.031-1.375 0.175-2.07 0.204-0.701 0.603-1.38 1.199-2.038 0.589-0.654 1.449-1.224 2.578-1.708z" fill="#000000" data-fill-palette-color="secondary"></path><path d="M26.291 210.498l1.229-0.857-0.024-0.043c-0.163-0.07-0.389-0.177-0.68-0.323-0.29-0.145-0.595-0.323-0.916-0.535-0.324-0.218-0.644-0.477-0.959-0.778-0.31-0.303-0.569-0.639-0.777-1.007v0c-0.287-0.509-0.467-0.978-0.541-1.408-0.073-0.429-0.02-0.841 0.159-1.235 0.176-0.385 0.485-0.767 0.926-1.147 0.438-0.371 1.029-0.766 1.772-1.186v0l6.729-3.8 0.932 1.65-6.484 3.661c-0.409 0.231-0.778 0.447-1.105 0.646-0.321 0.197-0.575 0.402-0.763 0.616-0.188 0.214-0.293 0.451-0.316 0.711-0.023 0.26 0.061 0.559 0.253 0.899v0c0.201 0.357 0.487 0.685 0.858 0.985 0.364 0.303 0.732 0.559 1.103 0.766v0c0.43 0.243 0.884 0.465 1.36 0.666v0l7.695-4.344 0.931 1.649-9.02 5.093c-0.485 0.289-0.911 0.572-1.279 0.85v0z" fill="#000000" data-fill-palette-color="secondary"></path><path d="M30.378 216.434l8.173-5.718c0.297-0.208 0.741-0.564 1.332-1.067v0l1.189 1.295-1.302 1.144 0.011 0.017c0.459 0.023 0.875 0.068 1.25 0.134 0.374 0.066 0.726 0.164 1.055 0.295 0.325 0.125 0.565 0.298 0.719 0.518v0c0.224 0.286 0.483 0.72 0.775 1.302v0l-1.737 0.698c-0.223-0.483-0.398-0.804-0.524-0.961v0c-0.154-0.22-0.422-0.381-0.805-0.482-0.373-0.1-0.739-0.159-1.097-0.179v0c-0.448-0.031-0.931-0.029-1.448 0.004v0l-6.505 4.552z" fill="#000000" data-fill-palette-color="secondary"></path><path d="M41.224 230.123l11.653-11.14 1.371 1.435-5.382 5.145 10.054-0.259 1.72 1.799-9.169 0.193-1.829 11.632-1.72-1.798 1.546-9.814-2.495 0.058-4.377 4.184z" fill="#000000" data-fill-palette-color="secondary"></path><path d="M52.461 241.247l6.099-7.311c0.231-0.245 0.663-0.821 1.296-1.727v0l1.487 0.938-0.767 1.329c0.563 0.059 1.101 0.148 1.613 0.269 0.507 0.116 1.004 0.26 1.491 0.43 0.493 0.175 0.914 0.409 1.265 0.701v0c0.495 0.413 0.863 0.816 1.104 1.21 0.235 0.389 0.344 0.803 0.327 1.244-0.013 0.435-0.156 0.911-0.429 1.426-0.274 0.506-0.684 1.087-1.231 1.742v0l-4.905 5.881-1.447-1.207 4.77-5.718c0.301-0.361 0.562-0.69 0.783-0.987 0.231-0.297 0.381-0.583 0.452-0.856 0.08-0.274 0.07-0.545-0.03-0.813-0.095-0.263-0.313-0.537-0.654-0.82v0c-0.315-0.262-0.705-0.47-1.172-0.624-0.467-0.153-0.943-0.28-1.429-0.379-0.491-0.103-1.013-0.18-1.566-0.23v0l-5.603 6.716z" fill="#000000" data-fill-palette-color="secondary"></path><path d="M68.659 246.274v0c-0.829 1.28-1.161 2.421-0.995 3.426 0.17 0.998 0.742 1.813 1.717 2.445v0c0.97 0.628 1.926 0.808 2.869 0.538 0.943-0.269 1.818-1.027 2.626-2.273v0c0.855-1.319 1.205-2.489 1.049-3.51-0.155-1.021-0.729-1.853-1.721-2.495v0c-0.992-0.643-1.959-0.813-2.899-0.51-0.931 0.301-1.813 1.094-2.646 2.38zM66.979 245.162v0c0.654-1.009 1.357-1.742 2.109-2.199 0.75-0.466 1.5-0.741 2.25-0.823 0.748-0.092 1.457-0.037 2.126 0.164 0.67 0.202 1.255 0.465 1.757 0.791v0c0.474 0.307 0.943 0.719 1.408 1.236 0.465 0.517 0.808 1.124 1.03 1.82 0.227 0.699 0.287 1.478 0.179 2.337-0.108 0.858-0.487 1.789-1.137 2.793v0c-0.679 1.049-1.403 1.813-2.17 2.292-0.773 0.476-1.531 0.757-2.275 0.843-0.753 0.088-1.468 0.029-2.143-0.176-0.675-0.205-1.258-0.467-1.748-0.785v0c-0.502-0.325-0.978-0.746-1.428-1.261-0.456-0.519-0.792-1.125-1.008-1.817-0.222-0.696-0.268-1.482-0.14-2.36 0.125-0.872 0.521-1.823 1.19-2.855z" fill="#000000" data-fill-palette-color="secondary"></path><path d="M79.607 259.461l2.099-12.136 1.8 0.837-0.995 5.46c-0.083 0.465-0.183 0.952-0.301 1.46-0.124 0.505-0.237 0.979-0.339 1.421v0c-0.133 0.509-0.254 1.015-0.362 1.52v0l0.018 0.009c0.31-0.411 0.638-0.822 0.984-1.232v0c0.303-0.348 0.626-0.724 0.969-1.127 0.343-0.403 0.678-0.781 1.004-1.133v0l3.782-4.164 2.293 1.066-1.041 5.439c-0.095 0.46-0.196 0.946-0.301 1.46-0.112 0.511-0.225 0.985-0.338 1.421v0c-0.133 0.509-0.263 1.011-0.39 1.507v0l0.027 0.013c0.346-0.41 0.7-0.819 1.061-1.229v0c0.3-0.342 0.629-0.715 0.987-1.119 0.361-0.395 0.698-0.761 1.01-1.097v0l3.763-4.173 1.782 0.829-8.55 9.136-1.909-0.888 1.205-6.629c0.115-0.613 0.224-1.159 0.328-1.637 0.113-0.481 0.202-0.888 0.267-1.22v0c0.1-0.391 0.182-0.734 0.246-1.03v0l-0.037-0.017c-0.186 0.24-0.404 0.519-0.657 0.839v0c-0.212 0.264-0.484 0.586-0.815 0.965-0.329 0.373-0.7 0.797-1.114 1.272v0l-4.567 5.065z" fill="#000000" data-fill-palette-color="secondary"></path><path d="M95.833 266.628l5.966-16.668 1.855 0.44-6.038 16.866z" fill="#000000" data-fill-palette-color="secondary"></path><path d="M111.357 269.136l-0.054 1.623c-0.378 0.011-0.766 0.006-1.163-0.016-0.391-0.02-0.821-0.061-1.291-0.123-0.464-0.06-0.939-0.154-1.426-0.283v0c-0.76-0.201-1.44-0.492-2.041-0.873-0.599-0.388-1.08-0.883-1.441-1.486-0.362-0.603-0.583-1.318-0.663-2.145-0.087-0.829 0.015-1.792 0.305-2.889v0c0.261-0.987 0.627-1.821 1.1-2.503 0.48-0.686 1.027-1.219 1.642-1.598 0.61-0.388 1.274-0.626 1.991-0.714 0.716-0.082 1.454-0.022 2.215 0.179v0c0.747 0.197 1.358 0.512 1.834 0.944 0.468 0.436 0.816 0.949 1.043 1.537 0.227 0.588 0.34 1.236 0.34 1.945 0 0.709-0.097 1.43-0.291 2.164v0l-0.606 0.913-7.384-1.952c-0.125 0.474-0.189 0.964-0.19 1.471 0 0.5 0.098 0.981 0.295 1.443 0.191 0.46 0.496 0.871 0.915 1.232 0.419 0.361 0.985 0.636 1.699 0.825v0c0.461 0.122 0.887 0.207 1.278 0.254 0.397 0.049 0.744 0.075 1.042 0.078 0.303 0.011 0.587 0.002 0.851-0.026zM105.922 262.416l5.767 1.524c0.027-0.104 0.064-0.348 0.11-0.732 0.051-0.376 0.047-0.783-0.011-1.222-0.064-0.441-0.23-0.863-0.498-1.267-0.268-0.404-0.691-0.683-1.27-0.836v0c-0.643-0.17-1.204-0.176-1.683-0.018-0.48 0.158-0.891 0.386-1.234 0.685-0.336 0.3-0.604 0.629-0.803 0.986-0.192 0.359-0.318 0.652-0.378 0.88z" fill="#000000" data-fill-palette-color="secondary"></path><path d="M124.092 270.544l1.144-7.429c-0.54-0.246-0.963-0.41-1.27-0.491-0.306-0.088-0.622-0.157-0.947-0.207v0c-0.657-0.101-1.236-0.071-1.737 0.09-0.5 0.161-0.935 0.424-1.304 0.788-0.369 0.365-0.664 0.805-0.886 1.321-0.222 0.516-0.38 1.08-0.475 1.691v0c-0.084 0.544-0.108 1.098-0.072 1.661 0.029 0.562 0.136 1.081 0.321 1.558 0.178 0.476 0.427 0.871 0.745 1.185 0.318 0.321 0.725 0.519 1.224 0.596v0c0.345 0.053 0.71 0.048 1.093-0.015 0.385-0.07 0.746-0.164 1.083-0.282 0.338-0.118 0.698-0.273 1.081-0.466zM123.877 273.335l-0.016-1.154c-0.397 0.197-0.778 0.349-1.141 0.456-0.357 0.115-0.745 0.205-1.163 0.27-0.417 0.058-0.811 0.059-1.183 0.001v0c-1.461-0.225-2.529-0.919-3.206-2.084-0.67-1.163-0.852-2.741-0.546-4.732v0c0.182-1.182 0.523-2.142 1.024-2.881 0.507-0.731 1.082-1.291 1.727-1.681 0.65-0.382 1.323-0.625 2.019-0.729 0.695-0.097 1.321-0.103 1.878-0.017v0c0.279 0.043 0.572 0.105 0.879 0.186 0.306 0.088 0.752 0.258 1.338 0.512v0l0.903-5.865 1.894 0.077-2.399 15.585c-0.033 0.212-0.065 0.442-0.095 0.689-0.024 0.241-0.043 0.479-0.06 0.715-0.009 0.236-0.02 0.483-0.032 0.739v0z" fill="#000000" data-fill-palette-color="secondary"></path><path d="M140.843 262.579l-0.531 12.735c-0.024 0.577-0.111 1.142-0.262 1.693-0.144 0.545-0.402 1.025-0.776 1.44-0.374 0.421-0.885 0.746-1.533 0.975-0.648 0.235-1.493 0.331-2.533 0.288v0c-0.657-0.041-1.229-0.105-1.717-0.193-0.487-0.081-0.947-0.191-1.378-0.329-0.438-0.133-0.835-0.287-1.191-0.464v0l0.563-1.63c0.606 0.294 1.225 0.525 1.856 0.693 0.632 0.168 1.199 0.262 1.703 0.282v0c0.55 0.023 1.032-0.011 1.446-0.101 0.414-0.097 0.764-0.267 1.05-0.511 0.286-0.25 0.505-0.584 0.657-1.001 0.152-0.424 0.241-0.951 0.268-1.582v0l0.072-1.721c-0.338 0.208-0.689 0.395-1.052 0.561-0.363 0.166-0.749 0.305-1.157 0.415-0.408 0.104-0.799 0.148-1.176 0.133v0c-1.463-0.061-2.599-0.623-3.408-1.685-0.803-1.069-1.161-2.627-1.076-4.674v0c0.049-1.181 0.275-2.16 0.677-2.936 0.402-0.783 0.896-1.405 1.479-1.865 0.591-0.466 1.23-0.792 1.917-0.979 0.68-0.18 1.328-0.257 1.946-0.231v0c0.805 0.034 1.538 0.128 2.196 0.283 0.666 0.162 1.319 0.297 1.96 0.404zM135.433 272.62v0c0.349 0.015 0.707-0.031 1.074-0.137 0.368-0.112 0.723-0.249 1.066-0.409 0.35-0.16 0.694-0.351 1.033-0.572v0l0.314-7.531c-0.186-0.055-0.405-0.121-0.658-0.198v0c-0.22-0.043-0.47-0.087-0.751-0.133-0.28-0.052-0.578-0.085-0.893-0.097v0c-0.664-0.028-1.236 0.066-1.716 0.281-0.48 0.215-0.882 0.521-1.208 0.918-0.326 0.397-0.571 0.867-0.735 1.411-0.164 0.544-0.259 1.125-0.284 1.743v0c-0.023 0.55 0.015 1.103 0.112 1.659 0.091 0.555 0.255 1.059 0.492 1.513 0.23 0.453 0.521 0.818 0.872 1.095 0.351 0.284 0.778 0.436 1.282 0.457z" fill="#000000" data-fill-palette-color="secondary"></path><path d="M154.13 271.494l0.473 1.553c-0.354 0.133-0.723 0.253-1.106 0.361-0.376 0.107-0.797 0.207-1.262 0.3-0.458 0.093-0.938 0.157-1.441 0.192v0c-0.784 0.055-1.522-0.001-2.213-0.168-0.692-0.174-1.307-0.487-1.844-0.941-0.537-0.454-0.977-1.059-1.319-1.816-0.349-0.757-0.564-1.701-0.644-2.834v0c-0.071-1.019 0.006-1.926 0.233-2.723 0.233-0.804 0.579-1.485 1.039-2.042 0.452-0.564 1.004-1.003 1.655-1.319 0.652-0.308 1.37-0.49 2.153-0.545v0c0.771-0.054 1.451 0.046 2.041 0.301 0.584 0.262 1.078 0.635 1.483 1.118 0.404 0.483 0.721 1.06 0.95 1.732 0.229 0.671 0.37 1.385 0.423 2.142v0l-0.279 1.06-7.619 0.534c0.034 0.489 0.132 0.974 0.294 1.454 0.161 0.474 0.41 0.897 0.746 1.271 0.329 0.374 0.75 0.664 1.263 0.871 0.513 0.206 1.138 0.284 1.875 0.232v0c0.476-0.033 0.906-0.091 1.29-0.171 0.392-0.081 0.729-0.169 1.012-0.263 0.29-0.088 0.556-0.187 0.797-0.299zM146.817 266.887l5.951-0.418c-0.008-0.107-0.051-0.35-0.132-0.728-0.073-0.372-0.208-0.756-0.404-1.153-0.203-0.397-0.497-0.743-0.881-1.039-0.384-0.296-0.875-0.423-1.472-0.382v0c-0.663 0.047-1.196 0.222-1.599 0.526-0.403 0.304-0.718 0.653-0.947 1.047-0.222 0.393-0.369 0.79-0.441 1.192-0.066 0.402-0.091 0.72-0.075 0.955z" fill="#000000" data-fill-palette-color="secondary"></path><path d="M159.205 275.484l-0.054-5.869 1.983-0.293-0.412 6.223z" fill="#000000" data-fill-palette-color="secondary"></path><path d="M176.985 268.69l-1.672-5.62-7.869-8.361 2.106-0.626 6.017 6.378 1.574-8.636 2.105-0.626-2.011 11.299 1.672 5.621z" fill="#000000" data-fill-palette-color="secondary"></path><path d="M185.419 259.685v0c0.578 1.411 1.327 2.335 2.246 2.771 0.917 0.43 1.913 0.425 2.988-0.015v0c1.069-0.438 1.762-1.121 2.078-2.05 0.317-0.928 0.193-2.079-0.369-3.453v0c-0.596-1.454-1.357-2.409-2.285-2.864-0.927-0.455-1.937-0.458-3.031-0.01v0c-1.094 0.448-1.785 1.145-2.072 2.091-0.284 0.937-0.136 2.114 0.445 3.53zM183.546 260.431v0c-0.456-1.113-0.657-2.108-0.603-2.987 0.045-0.882 0.247-1.655 0.607-2.318 0.351-0.667 0.801-1.217 1.349-1.652 0.548-0.435 1.098-0.766 1.651-0.992v0c0.522-0.214 1.128-0.364 1.819-0.452 0.69-0.087 1.384-0.023 2.082 0.193 0.704 0.212 1.378 0.608 2.021 1.186 0.644 0.578 1.192 1.421 1.646 2.527v0c0.474 1.156 0.689 2.186 0.645 3.089-0.05 0.906-0.252 1.689-0.605 2.35-0.357 0.669-0.813 1.222-1.367 1.66-0.554 0.437-1.101 0.767-1.642 0.988v0c-0.553 0.227-1.17 0.378-1.851 0.454-0.687 0.078-1.376 0.008-2.067-0.209-0.698-0.215-1.371-0.625-2.018-1.232-0.645-0.6-1.2-1.468-1.667-2.605z" fill="#000000" data-fill-palette-color="secondary"></path><path d="M207.156 256.027l-0.836-1.243-0.045 0.024c-0.073 0.162-0.184 0.387-0.333 0.674-0.149 0.288-0.333 0.59-0.55 0.908-0.223 0.32-0.488 0.636-0.793 0.947-0.308 0.305-0.648 0.559-1.019 0.761v0c-0.513 0.279-0.985 0.452-1.416 0.517-0.431 0.066-0.841 0.006-1.233-0.178-0.382-0.182-0.76-0.497-1.133-0.944-0.364-0.444-0.75-1.041-1.157-1.791v0l-3.691-6.79 1.664-0.904 3.557 6.541c0.225 0.413 0.434 0.785 0.629 1.115 0.191 0.324 0.393 0.582 0.603 0.773 0.211 0.191 0.446 0.3 0.706 0.327 0.259 0.027 0.56-0.052 0.902-0.238v0c0.36-0.196 0.693-0.476 1-0.842 0.309-0.359 0.57-0.723 0.783-1.091v0c0.25-0.426 0.479-0.876 0.688-1.349v0l-4.221-7.763 1.664-0.905 4.948 9.1c0.281 0.489 0.558 0.92 0.829 1.292v0z" fill="#000000" data-fill-palette-color="secondary"></path><path d="M213.157 252.037l-5.586-8.264c-0.203-0.301-0.552-0.75-1.045-1.349v0l1.314-1.168 1.124 1.32 0.016-0.011c0.031-0.459 0.082-0.874 0.154-1.247 0.072-0.373 0.176-0.723 0.312-1.05 0.13-0.323 0.307-0.56 0.53-0.711v0c0.289-0.22 0.727-0.471 1.314-0.754v0l0.67 1.748c-0.487 0.215-0.81 0.385-0.969 0.509v0c-0.223 0.15-0.388 0.416-0.495 0.797-0.106 0.371-0.171 0.736-0.197 1.094v0c-0.038 0.447-0.044 0.93-0.019 1.447v0l4.446 6.579z" fill="#000000" data-fill-palette-color="secondary"></path><path d="M224.774 222.223l0.875 1.566c-0.373 0.181-0.756 0.38-1.15 0.598-0.394 0.228-0.81 0.495-1.249 0.801-0.43 0.307-0.859 0.659-1.288 1.057v0c-0.695 0.644-1.144 1.34-1.348 2.088-0.209 0.753-0.249 1.504-0.12 2.255 0.128 0.751 0.391 1.479 0.787 2.183 0.401 0.709 0.862 1.344 1.382 1.906v0c0.667 0.719 1.371 1.276 2.112 1.67 0.745 0.399 1.483 0.641 2.211 0.725 0.734 0.08 1.437 0.014 2.111-0.198 0.673-0.212 1.269-0.558 1.786-1.038v0c0.488-0.452 0.908-0.893 1.262-1.321 0.354-0.429 0.651-0.805 0.891-1.128v0c0.271-0.38 0.496-0.739 0.675-1.08v0l1.433 0.953c-0.215 0.401-0.475 0.816-0.782 1.246v0c-0.261 0.37-0.579 0.784-0.952 1.24-0.373 0.447-0.816 0.908-1.328 1.383v0c-0.911 0.845-1.849 1.439-2.813 1.783-0.963 0.334-1.925 0.443-2.885 0.326-0.956-0.112-1.887-0.43-2.795-0.954-0.912-0.519-1.774-1.217-2.587-2.094v0c-0.932-1.005-1.616-2.019-2.052-3.043-0.437-1.024-0.653-2.023-0.65-2.998 0.003-0.965 0.216-1.891 0.64-2.778 0.423-0.887 1.034-1.701 1.832-2.44v0c0.488-0.452 0.966-0.845 1.434-1.179 0.469-0.344 0.92-0.638 1.353-0.883 0.423-0.245 0.828-0.461 1.215-0.646z" fill="#000000" data-fill-palette-color="secondary"></path><path d="M238.49 230.171l-13.429-11.535 1.074-1.575 5.702 4.898c0.067-0.562 0.162-1.096 0.285-1.601 0.124-0.505 0.276-1.002 0.459-1.492 0.182-0.49 0.422-0.908 0.719-1.255v0c0.42-0.489 0.829-0.851 1.225-1.086 0.392-0.23 0.808-0.333 1.249-0.309 0.435 0.019 0.906 0.172 1.413 0.457 0.507 0.276 1.084 0.692 1.731 1.248v0l5.809 4.989-1.234 1.437-5.648-4.852c-0.357-0.306-0.68-0.575-0.969-0.805-0.294-0.235-0.577-0.39-0.85-0.464-0.278-0.079-0.549-0.073-0.813 0.019-0.265 0.092-0.541 0.305-0.83 0.641v0c-0.267 0.311-0.485 0.704-0.654 1.179-0.173 0.48-0.308 0.957-0.406 1.431-0.097 0.474-0.175 0.987-0.233 1.54v0l6.634 5.698z" fill="#000000" data-fill-palette-color="secondary"></path><path d="M243.745 214.047v0c1.268 0.847 2.405 1.195 3.411 1.044 1.001-0.155 1.824-0.716 2.469-1.682v0c0.642-0.961 0.835-1.914 0.58-2.861-0.256-0.947-1.001-1.833-2.236-2.658v0c-1.307-0.873-2.472-1.24-3.494-1.099-1.023 0.14-1.863 0.702-2.52 1.684v0c-0.657 0.983-0.841 1.947-0.551 2.892 0.288 0.936 1.068 1.829 2.341 2.68zM242.608 215.711v0c-1-0.668-1.723-1.382-2.168-2.14-0.456-0.757-0.719-1.511-0.791-2.262-0.081-0.749-0.016-1.457 0.195-2.123 0.211-0.667 0.483-1.249 0.815-1.746v0c0.314-0.469 0.732-0.932 1.257-1.39 0.524-0.458 1.136-0.792 1.834-1.004 0.703-0.217 1.482-0.266 2.339-0.145 0.857 0.12 1.782 0.513 2.777 1.177v0c1.039 0.694 1.792 1.428 2.261 2.202 0.465 0.779 0.735 1.542 0.81 2.287 0.077 0.755 0.008 1.468-0.206 2.14-0.215 0.672-0.485 1.251-0.81 1.737v0c-0.332 0.497-0.759 0.967-1.282 1.41-0.526 0.448-1.136 0.776-1.831 0.981-0.699 0.212-1.486 0.247-2.362 0.106-0.87-0.137-1.816-0.547-2.838-1.23z" fill="#000000" data-fill-palette-color="secondary"></path><path d="M256.177 205.373l-10.417-5.773 0.733-1.759 10.602 5.875zM242.647 198.233v0c-0.317-0.176-0.521-0.431-0.612-0.766-0.094-0.329-0.054-0.652 0.122-0.969v0c0.182-0.329 0.443-0.549 0.781-0.661 0.338-0.112 0.666-0.08 0.984 0.096v0c0.317 0.176 0.521 0.439 0.611 0.788 0.085 0.346 0.036 0.684-0.146 1.013v0c-0.176 0.317-0.428 0.523-0.757 0.617-0.338 0.097-0.665 0.057-0.983-0.118z" fill="#000000" data-fill-palette-color="secondary"></path><path d="M251.972 187.043l1.283 0.998c-0.167 0.219-0.382 0.527-0.645 0.924-0.26 0.406-0.492 0.831-0.696 1.277v0c-0.294 0.641-0.406 1.225-0.336 1.752 0.069 0.527 0.257 0.997 0.562 1.41 0.303 0.419 0.682 0.785 1.137 1.097 0.456 0.312 0.918 0.576 1.389 0.791v0c0.733 0.336 1.401 0.531 2.004 0.586 0.612 0.051 1.153 0 1.622-0.155 0.472-0.16 0.877-0.407 1.215-0.74 0.328-0.33 0.595-0.718 0.799-1.164v0c0.137-0.299 0.252-0.598 0.343-0.895 0.098-0.295 0.173-0.571 0.224-0.829 0.06-0.261 0.103-0.514 0.128-0.761v0l1.606 0.314c-0.052 0.338-0.11 0.651-0.175 0.94-0.063 0.282-0.152 0.606-0.269 0.974-0.119 0.374-0.272 0.762-0.456 1.165v0c-0.361 0.788-0.779 1.442-1.254 1.964-0.484 0.525-1.047 0.898-1.688 1.121-0.639 0.217-1.366 0.272-2.181 0.165-0.815-0.107-1.739-0.397-2.771-0.87v0c-1.002-0.459-1.803-0.992-2.404-1.6-0.592-0.611-1.009-1.249-1.251-1.914-0.242-0.665-0.333-1.346-0.273-2.042 0.058-0.69 0.233-1.356 0.527-1.997v0c0.159-0.348 0.329-0.677 0.507-0.987 0.182-0.301 0.35-0.564 0.505-0.788v0c0.193-0.259 0.375-0.504 0.548-0.736z" fill="#000000" data-fill-palette-color="secondary"></path><path d="M265.144 179.333l1.614 0.175c-0.017 0.378-0.051 0.764-0.103 1.159-0.049 0.388-0.122 0.814-0.219 1.278-0.095 0.458-0.224 0.925-0.389 1.401v0c-0.257 0.743-0.598 1.399-1.024 1.97-0.432 0.569-0.961 1.011-1.59 1.326-0.628 0.316-1.358 0.482-2.188 0.5-0.833 0.024-1.786-0.149-2.859-0.521v0c-0.965-0.334-1.769-0.762-2.413-1.284-0.648-0.53-1.138-1.116-1.47-1.757-0.341-0.637-0.528-1.317-0.563-2.04-0.028-0.72 0.087-1.452 0.344-2.194v0c0.253-0.73 0.612-1.316 1.079-1.759 0.47-0.434 1.007-0.742 1.61-0.925 0.603-0.182 1.258-0.247 1.966-0.193 0.707 0.053 1.419 0.204 2.136 0.452v0l0.865 0.673-2.5 7.216c0.463 0.161 0.948 0.261 1.453 0.301 0.499 0.038 0.986-0.025 1.461-0.187 0.473-0.156 0.906-0.429 1.297-0.819 0.391-0.391 0.708-0.935 0.95-1.633v0c0.156-0.451 0.273-0.869 0.349-1.255 0.079-0.392 0.131-0.737 0.155-1.034 0.033-0.301 0.046-0.585 0.039-0.85zM258.035 184.249l1.952-5.636c-0.102-0.035-0.342-0.09-0.721-0.165-0.371-0.079-0.777-0.106-1.22-0.081-0.444 0.031-0.878 0.165-1.301 0.402-0.423 0.237-0.733 0.638-0.929 1.203v0c-0.218 0.628-0.266 1.188-0.144 1.678 0.122 0.49 0.319 0.917 0.591 1.281 0.274 0.358 0.582 0.649 0.923 0.875 0.344 0.219 0.627 0.366 0.849 0.443z" fill="#000000" data-fill-palette-color="secondary"></path></g></svg></g></svg></g></svg></g></svg></g><defs></defs></svg><rect width="279.72" height="279.72" fill="none" stroke="none" visibility="hidden"></rect></g></svg></g></svg>